<svg width="14" height="15" viewBox="0 0 14 15" fill="none" xmlns="http://www.w3.org/2000/svg">
<path d="M7.58398 4.00065C7.58398 3.67849 7.32282 3.41732 7.00065 3.41732C6.67848 3.41732 6.41732 3.67849 6.41732 4.00065V7.50065C6.41732 7.7216 6.54215 7.92359 6.73978 8.0224L9.07311 9.18907C9.36126 9.33314 9.71166 9.21635 9.85573 8.92819C9.99981 8.64004 9.88301 8.28965 9.59486 8.14557L7.58398 7.14013V4.00065Z" fill="#EF3340"/>
<path fill-rule="evenodd" clip-rule="evenodd" d="M7.00065 1.08398C3.45682 1.08398 0.583984 3.95682 0.583984 7.50065C0.583984 11.0445 3.45682 13.9173 7.00065 13.9173C10.5445 13.9173 13.4173 11.0445 13.4173 7.50065C13.4173 3.95682 10.5445 1.08398 7.00065 1.08398ZM1.75065 7.50065C1.75065 4.60116 4.10116 2.25065 7.00065 2.25065C9.90015 2.25065 12.2507 4.60116 12.2507 7.50065C12.2507 10.4001 9.90015 12.7507 7.00065 12.7507C4.10116 12.7507 1.75065 10.4001 1.75065 7.50065Z" fill="#EF3340"/>
</svg>
